<svg width="593" height="510" xmlns="http://www.w3.org/2000/svg" xmlns:xlink="http://www.w3.org/1999/xlink" overflow="hidden"><defs><filter id="fx0" x="-10%" y="-10%" width="120%" height="120%" filterUnits="userSpaceOnUse" primitiveUnits="userSpaceOnUse"><feComponentTransfer color-interpolation-filters="sRGB"><feFuncR type="discrete" tableValues="0 0"/><feFuncG type="discrete" tableValues="0 0"/><feFuncB type="discrete" tableValues="0 0"/><feFuncA type="linear" slope="0.4" intercept="0"/></feComponentTransfer><feGaussianBlur stdDeviation="1.77678 1.7772"/></filter><filter id="fx1" x="-10%" y="-10%" width="120%" height="120%" filterUnits="userSpaceOnUse" primitiveUnits="userSpaceOnUse"><feComponentTransfer color-interpolation-filters="sRGB"><feFuncR type="discrete" tableValues="0 0"/><feFuncG type="discrete" tableValues="0 0"/><feFuncB type="discrete" tableValues="0 0"/><feFuncA type="linear" slope="0.4" intercept="0"/></feComponentTransfer><feGaussianBlur stdDeviation="1.77678 1.7772"/></filter><filter id="fx2" x="-10%" y="-10%" width="120%" height="120%" filterUnits="userSpaceOnUse" primitiveUnits="userSpaceOnUse"><feComponentTransfer color-interpolation-filters="sRGB"><feFuncR type="discrete" tableValues="0 0"/><feFuncG type="discrete" tableValues="0 0"/><feFuncB type="discrete" tableValues="0 0"/><feFuncA type="linear" slope="0.4" intercept="0"/></feComponentTransfer><feGaussianBlur stdDeviation="1.77678 1.7772"/></filter><filter id="fx3" x="-10%" y="-10%" width="120%" height="120%" filterUnits="userSpaceOnUse" primitiveUnits="userSpaceOnUse"><feComponentTransfer color-interpolation-filters="sRGB"><feFuncR type="discrete" tableValues="0 0"/><feFuncG type="discrete" tableValues="0 0"/><feFuncB type="discrete" tableValues="0 0"/><feFuncA type="linear" slope="0.4" intercept="0"/></feComponentTransfer><feGaussianBlur stdDeviation="1.77678 1.7772"/></filter><filter id="fx4" x="-10%" y="-10%" width="120%" height="120%" filterUnits="userSpaceOnUse" primitiveUnits="userSpaceOnUse"><feComponentTransfer color-interpolation-filters="sRGB"><feFuncR type="discrete" tableValues="0 0"/><feFuncG type="discrete" tableValues="0 0"/><feFuncB type="discrete" tableValues="0 0"/><feFuncA type="linear" slope="0.4" intercept="0"/></feComponentTransfer><feGaussianBlur stdDeviation="1.77678 1.7772"/></filter><filter id="fx5" x="-10%" y="-10%" width="120%" height="120%" filterUnits="userSpaceOnUse" primitiveUnits="userSpaceOnUse"><feComponentTransfer color-interpolation-filters="sRGB"><feFuncR type="discrete" tableValues="0 0"/><feFuncG type="discrete" tableValues="0 0"/><feFuncB type="discrete" tableValues="0 0"/><feFuncA type="linear" slope="0.4" intercept="0"/></feComponentTransfer><feGaussianBlur stdDeviation="1.77678 1.7772"/></filter><filter id="fx6" x="-10%" y="-10%" width="120%" height="120%" filterUnits="userSpaceOnUse" primitiveUnits="userSpaceOnUse"><feComponentTransfer color-interpolation-filters="sRGB"><feFuncR type="discrete" tableValues="0 0"/><feFuncG type="discrete" tableValues="0 0"/><feFuncB type="discrete" tableValues="0 0"/><feFuncA type="linear" slope="0.4" intercept="0"/></feComponentTransfer><feGaussianBlur stdDeviation="1.77678 1.7772"/></filter><filter id="fx7" x="-10%" y="-10%" width="120%" height="120%" filterUnits="userSpaceOnUse" primitiveUnits="userSpaceOnUse"><feComponentTransfer color-interpolation-filters="sRGB"><feFuncR type="discrete" tableValues="0 0"/><feFuncG type="discrete" tableValues="0 0"/><feFuncB type="discrete" tableValues="0 0"/><feFuncA type="linear" slope="0.4" intercept="0"/></feComponentTransfer><feGaussianBlur stdDeviation="1.77678 1.7772"/></filter><filter id="fx8" x="-10%" y="-10%" width="120%" height="120%" filterUnits="userSpaceOnUse" primitiveUnits="userSpaceOnUse"><feComponentTransfer color-interpolation-filters="sRGB"><feFuncR type="discrete" tableValues="0 0"/><feFuncG type="discrete" tableValues="0 0"/><feFuncB type="discrete" tableValues="0 0"/><feFuncA type="linear" slope="0.4" intercept="0"/></feComponentTransfer><feGaussianBlur stdDeviation="1.77678 1.7772"/></filter><filter id="fx9" x="-10%" y="-10%" width="120%" height="120%" filterUnits="userSpaceOnUse" primitiveUnits="userSpaceOnUse"><feComponentTransfer color-interpolation-filters="sRGB"><feFuncR type="discrete" tableValues="0 0"/><feFuncG type="discrete" tableValues="0 0"/><feFuncB type="discrete" tableValues="0 0"/><feFuncA type="linear" slope="0.4" intercept="0"/></feComponentTransfer><feGaussianBlur stdDeviation="1.77678 1.7772"/></filter><filter id="fx10" x="-10%" y="-10%" width="120%" height="120%" filterUnits="userSpaceOnUse" primitiveUnits="userSpaceOnUse"><feComponentTransfer color-interpolation-filters="sRGB"><feFuncR type="discrete" tableValues="0 0"/><feFuncG type="discrete" tableValues="0 0"/><feFuncB type="discrete" tableValues="0 0"/><feFuncA type="linear" slope="0.4" intercept="0"/></feComponentTransfer><feGaussianBlur stdDeviation="1.77678 1.7772"/></filter><filter id="fx11" x="-10%" y="-10%" width="120%" height="120%" filterUnits="userSpaceOnUse" primitiveUnits="userSpaceOnUse"><feComponentTransfer color-interpolation-filters="sRGB"><feFuncR type="discrete" tableValues="0 0"/><feFuncG type="discrete" tableValues="0 0"/><feFuncB type="discrete" tableValues="0 0"/><feFuncA type="linear" slope="0.4" intercept="0"/></feComponentTransfer><feGaussianBlur stdDeviation="1.77678 1.7772"/></filter><clipPath id="clip12"><rect x="0" y="0" width="593" height="510"/></clipPath><clipPath id="clip13"><rect x="-2" y="-2" width="139" height="104"/></clipPath><clipPath id="clip14"><rect x="0" y="0" width="136" height="101"/></clipPath><clipPath id="clip15"><rect x="-2" y="-2" width="128" height="112"/></clipPath><clipPath id="clip16"><rect x="0" y="0" width="126" height="108"/></clipPath><clipPath id="clip17"><rect x="-2" y="-2" width="147" height="91"/></clipPath><clipPath id="clip18"><rect x="0" y="0" width="144" height="87"/></clipPath><clipPath id="clip19"><rect x="-2" y="-2" width="147" height="91"/></clipPath><clipPath id="clip20"><rect x="0" y="0" width="144" height="87"/></clipPath><clipPath id="clip21"><rect x="-2" y="-2" width="139" height="106"/></clipPath><clipPath id="clip22"><rect x="0" y="0" width="137" height="101"/></clipPath><clipPath id="clip23"><rect x="-2" y="-2" width="128" height="112"/></clipPath><clipPath id="clip24"><rect x="0" y="0" width="126" height="108"/></clipPath><clipPath id="clip25"><rect x="-2" y="-2" width="139" height="106"/></clipPath><clipPath id="clip26"><rect x="0" y="0" width="137" height="101"/></clipPath><clipPath id="clip27"><rect x="-2" y="-2" width="128" height="112"/></clipPath><clipPath id="clip28"><rect x="0" y="0" width="126" height="109"/></clipPath><clipPath id="clip29"><rect x="-2" y="-2" width="147" height="91"/></clipPath><clipPath id="clip30"><rect x="0" y="0" width="144" height="87"/></clipPath><clipPath id="clip31"><rect x="-2" y="-2" width="139" height="106"/></clipPath><clipPath id="clip32"><rect x="0" y="0" width="136" height="101"/></clipPath><clipPath id="clip33"><rect x="-2" y="-2" width="128" height="112"/></clipPath><clipPath id="clip34"><rect x="0" y="0" width="126" height="108"/></clipPath><clipPath id="clip35"><rect x="-2" y="-2" width="147" height="91"/></clipPath><clipPath id="clip36"><rect x="0" y="0" width="144" height="87"/></clipPath></defs><g clip-path="url(#clip12)"><rect x="0" y="0" width="593" height="510.12" fill="#FFFFFF"/><path d="M307.067 6.0014 580.819 6.0014C585.889 6.0014 590 10.1066 590 15.1708L590 220.725 590 224.246 590 408.848C590 413.404 586.301 417.098 581.739 417.098L11.2613 417.098C6.69869 417.098 2.99999 413.404 2.99999 408.848L2.99999 220.725C2.99999 216.168 6.69869 212.474 11.2613 212.474L297.886 212.474 297.886 15.1708C297.886 10.1066 301.996 6.0014 307.067 6.0014Z" stroke="#00B050" stroke-width="1.99888" stroke-miterlimit="8" stroke-opacity="0.501961" fill="#92D050" fill-rule="evenodd" fill-opacity="0.701961"/><path d="M2.99999 14.1481C2.99999 9.64879 6.64652 6.0014 11.1447 6.0014L285.855 6.0014C290.353 6.0014 294 9.64879 294 14.1481L294 199.902C294 204.402 290.353 208.049 285.855 208.049L11.1447 208.049C6.64652 208.049 2.99999 204.402 2.99999 199.902Z" stroke="#FBBC05" stroke-width="1.99888" stroke-miterlimit="8" fill="#FBBC05" fill-rule="evenodd" fill-opacity="0.701961"/><rect x="3.49997" y="424.6" width="587" height="82.0193" stroke="#D0CECE" stroke-width="1.33258" stroke-miterlimit="8" stroke-dasharray="10.6607 3.99775" fill="none"/><path d="M0 0 47.1924 0.000104928" stroke="#000000" stroke-width="1.99888" stroke-miterlimit="8" fill="none" fill-rule="evenodd" transform="matrix(-1 0 0 1.00024 90.1923 489.115)"/><text font-family="Times New Roman,Times New Roman_MSFontService,sans-serif" font-weight="400" font-size="19" transform="matrix(1 0 0 1.00024 44.4744 447)">Support Samples<tspan font-size="19" x="190.135" y="0">Synthesized Samples</tspan></text><path d="M433.5 445.605 439 435.602 444.5 445.605Z" stroke="#A6A6A6" stroke-width="1.33258" stroke-miterlimit="8" fill="none" fill-rule="evenodd"/><text font-family="Times New Roman,Times New Roman_MSFontService,sans-serif" font-weight="400" font-size="19" transform="matrix(1 0 0 1.00024 451.703 447)">Query Samples</text><path d="M74 464.609C74 468.2 68.6274 471.111 62 471.111 55.3726 471.111 50 468.2 50 464.609 50 461.019 55.3726 458.108 62 458.108 68.6274 458.108 74 461.019 74 464.609Z" fill="#A6A6A6" fill-rule="evenodd"/><text font-family="Times New Roman,Times New Roman_MSFontService,sans-serif" font-weight="400" font-size="19" transform="matrix(1 0 0 1.00024 83.8595 471)">Ground-<tspan font-size="19" x="63.1312" y="0">Truth Distribution</tspan></text><path d="M314.5 471.111C308.149 471.111 303 467.976 303 464.109 303 460.242 308.149 457.108 314.5 457.108 320.851 457.108 326 460.242 326 464.109 326 467.976 320.851 471.111 314.5 471.111Z" stroke="#A6A6A6" stroke-width="1.99935" stroke-miterlimit="8" fill="none" fill-rule="evenodd"/><text font-family="Times New Roman,Times New Roman_MSFontService,sans-serif" font-weight="400" font-size="19" transform="matrix(1 0 0 1.00024 336.16 471)">Synthesized Distribution<tspan font-size="19" x="-229.121" y="24.9941">Classification Boundary</tspan></text><path d="M308.97 486.684C310.196 484.08 313.509 483.062 316.37 484.409 319.231 485.757 320.557 488.96 319.331 491.564 318.105 494.168 314.792 495.187 311.931 493.839 309.07 492.492 307.744 489.288 308.97 486.684Z" fill="#A6A6A6" fill-rule="evenodd"/><text font-family="Times New Roman,Times New Roman_MSFontService,sans-serif" font-weight="400" font-size="19" transform="matrix(1 0 0 1.00024 332.818 496)">Semantic Representation</text><rect x="301.5" y="12.5029" width="284" height="175.041" stroke="#D0CECE" stroke-width="2.66517" stroke-miterlimit="8" fill="#F5F5F5"/><g clip-path="url(#clip13)" filter="url(#fx0)" transform="translate(332 9)"><g clip-path="url(#clip14)"><path d="M52.1641 17.1721C84.7816 1.6748 118.253 3.91341 126.924 22.1721 135.595 40.4308 116.182 67.7955 83.5646 83.2927 50.9471 98.79 17.4761 96.5513 8.80508 78.2926 0.134071 60.0339 19.5466 32.6693 52.1641 17.1721Z" fill="#FBE2CC" fill-rule="evenodd"/></g></g><path d="M381.337 23.3445C413.955 7.8473 447.426 10.0859 456.097 28.3446 464.768 46.6033 445.355 73.968 412.738 89.4652 380.12 104.962 346.649 102.724 337.978 84.4651 329.307 66.2064 348.72 38.8418 381.337 23.3445Z" fill="#FBE2CC" fill-rule="evenodd"/><text font-family="Times New Roman,Times New Roman_MSFontService,sans-serif" font-weight="700" font-size="19" transform="matrix(1 0 0 1.00024 378.966 204)">(b) Our Method</text><g clip-path="url(#clip15)" filter="url(#fx1)" transform="translate(455 53)"><g clip-path="url(#clip16)"><path d="M41.6955 85.3888C13.2437 65.8096-0.235947 36.0022 11.5879 18.8119 23.4118 1.62169 56.0618 3.55827 84.5136 23.1374 112.965 42.7165 126.445 72.524 114.621 89.7142 102.797 106.904 70.1474 104.968 41.6955 85.3888Z" fill="#CBECFF" fill-rule="evenodd"/></g></g><path d="M493.869 135.561C465.417 115.982 451.937 86.1747 463.761 68.9844 475.585 51.7942 508.235 53.7308 536.687 73.3099 565.139 92.889 578.618 122.697 566.794 139.887 554.97 157.077 522.321 155.14 493.869 135.561Z" fill="#CBECFF" fill-rule="evenodd"/><g clip-path="url(#clip17)" filter="url(#fx2)" transform="translate(303 104)"><g clip-path="url(#clip18)"><path d="M62.0483 13.4855C97.5419 2.15056 130.643 6.51894 135.981 23.2426 141.319 39.9662 116.873 62.7122 81.3797 74.0472 45.886 85.3822 12.7853 81.0138 7.44704 64.2902 2.10881 47.5665 26.5546 24.8205 62.0483 13.4855Z" fill="#FAD3CF" fill-rule="evenodd"/></g></g><path d="M362.221 114.658C397.715 103.323 430.816 107.691 436.154 124.415 441.492 141.139 417.046 163.885 381.553 175.22 346.059 186.555 312.958 182.186 307.62 165.463 302.282 148.739 326.728 125.993 362.221 114.658Z" fill="#FAD3CF" fill-rule="evenodd"/><path d="M314.5 150.535 320 140.533 325.5 150.535Z" stroke="#ED210A" stroke-width="1.33258" stroke-miterlimit="8" fill="none" fill-rule="evenodd"/><path d="M358.5 44.5105 364.5 34.5081 370.5 44.5105Z" stroke="#F26C00" stroke-width="1.33258" stroke-miterlimit="8" fill="none" fill-rule="evenodd"/><path d="M526.5 92.5218 532.5 82.5194 538.5 92.5218Z" stroke="#34A0FF" stroke-width="1.33258" stroke-miterlimit="8" fill="none" fill-rule="evenodd"/><path d="M467.5 72.5171 473.5 62.5147 479.5 72.5171Z" stroke="#34A0FF" stroke-width="1.33258" stroke-miterlimit="8" fill="none" fill-rule="evenodd"/><path d="M532.5 145.534 538.5 135.532 544.5 145.534Z" stroke="#34A0FF" stroke-width="1.33258" stroke-miterlimit="8" fill="none" fill-rule="evenodd"/><path d="M396.5 121.529 402 111.526 407.5 121.529Z" stroke="#ED210A" stroke-width="1.33258" stroke-miterlimit="8" fill="none" fill-rule="evenodd"/><path d="M446.5 36.5086 452.5 25.506 458.5 36.5086Z" stroke="#F26C00" stroke-width="1.33258" stroke-miterlimit="8" fill="none" fill-rule="evenodd"/><path d="M436.5 49.5117 442 38.5091 447.5 49.5117Z" stroke="#F26C00" stroke-width="1.33258" stroke-miterlimit="8" fill="none" fill-rule="evenodd"/><path d="M565.909 185.618 424 95.0224" stroke="#000000" stroke-width="1.99888" stroke-miterlimit="8" fill="none" fill-rule="evenodd"/><path d="M0 0 123.231 32.9128" stroke="#000000" stroke-width="1.99888" stroke-miterlimit="8" fill="none" fill-rule="evenodd" transform="matrix(-1 0 0 1.00024 424.231 95.0224)"/><path d="M0 0 71.1664 81.9809" stroke="#000000" stroke-width="1.99888" stroke-miterlimit="8" fill="none" fill-rule="evenodd" transform="matrix(1 0 0 -1.00024 424 95.0033)"/><path d="M390 59.514C390 56.4757 392.462 54.0127 395.5 54.0127 398.538 54.0127 401 56.4757 401 59.514 401 62.5523 398.538 65.0153 395.5 65.0153 392.462 65.0153 390 62.5523 390 59.514Z" fill="#F26C00" fill-rule="evenodd"/><path d="M432.43 32.8687C438.479 40.4734 426.516 60.0607 405.711 76.6182 384.905 93.1757 363.135 100.433 357.086 92.8287 351.037 85.224 363 65.6367 383.805 49.0792 404.61 32.5217 426.38 25.264 432.43 32.8687Z" stroke="#F26C00" stroke-width="1.33271" stroke-miterlimit="8" fill="none" fill-rule="evenodd"/><path d="M446.505 52.3063C442.548 77.1241 417.679 93.7879 390.957 89.526" stroke="#767171" stroke-width="1.99933" stroke-miterlimit="8" fill="none" fill-rule="evenodd"/><path d="M413.74 73.2866 419.444 79.2345 418.963 79.6958 413.26 73.748ZM419.204 79.4652 420.244 74.7733 422.894 83.3128 414.474 80.3094Z" fill="#767171"/><path d="M436.5 49.5117 442 38.5091 447.5 49.5117Z" stroke="#F26C00" stroke-width="1.33258" stroke-miterlimit="8" fill="none" fill-rule="evenodd"/><path d="M418.74 70.2859 424.444 76.2338 423.963 76.6951 418.26 70.7473ZM424.204 76.4645 425.244 71.7726 427.894 80.3121 419.474 77.3087Z" fill="#767171"/><path d="M422.74 66.285 428.444 72.2329 427.964 72.6942 422.26 66.7464ZM428.204 72.4636 429.244 67.7717 431.894 76.3112 423.474 73.3078Z" fill="#767171"/><path d="M514.43 99.6921C515.652 97.0972 518.962 96.086 521.823 97.4335 524.684 98.781 526.013 101.977 524.791 104.572 523.57 107.167 520.26 108.178 517.399 106.83 514.538 105.483 513.209 102.287 514.43 99.6921Z" fill="#34A0FF" fill-rule="evenodd"/><path d="M0.222807-0.247676 6.47367 5.37553 6.02806 5.87089-0.222807 0.247676ZM6.25086 5.62321 6.94313 0.868641 10.2137 9.18812 1.59577 6.81287Z" fill="#767171" transform="matrix(-1 0 0 1.00024 495.714 116.527)"/><path d="M526.705 140.07C499.297 144.148 474.152 127.777 470.541 103.502" stroke="#767171" stroke-width="1.99889" stroke-miterlimit="8" fill="none" fill-rule="evenodd"/><path d="M526.5 93.522 532.5 82.5194 538.5 93.522Z" stroke="#34A0FF" stroke-width="1.33258" stroke-miterlimit="8" fill="none" fill-rule="evenodd"/><path d="M532.5 145.534 538.5 135.532 544.5 145.534Z" stroke="#34A0FF" stroke-width="1.33258" stroke-miterlimit="8" fill="none" fill-rule="evenodd"/><path d="M0.233243-0.237874 5.5307 4.95645 5.06421 5.4322-0.233243 0.237874ZM5.29746 5.19433 6.19338 0.473895 9.10344 8.92622 0.595548 6.18287Z" fill="#767171" transform="matrix(-1 0 0 1.00024 499.603 121.529)"/><path d="M0.233243-0.237874 5.5307 4.95645 5.06421 5.4322-0.233243 0.237874ZM5.29746 5.19433 6.19338 0.473895 9.10344 8.92622 0.595548 6.18287Z" fill="#767171" transform="matrix(-1 0 0 1.00024 505.603 124.529)"/><path d="M483.578 61.0386C492.415 52.9172 512.51 60.41 528.461 77.7744 544.413 95.1387 550.181 115.799 541.344 123.921 532.507 132.042 512.413 124.549 496.461 107.185 480.509 89.8204 474.742 69.1601 483.578 61.0386Z" stroke="#4285F4" stroke-width="1.33275" stroke-miterlimit="8" fill="none" fill-rule="evenodd"/><path d="M366 151.536C366 148.497 368.686 146.034 372 146.034 375.314 146.034 378 148.497 378 151.536 378 154.574 375.314 157.037 372 157.037 368.686 157.037 366 154.574 366 151.536Z" fill="#EF3D29" fill-rule="evenodd"/><path d="M360.447 129.109 356.953 123.273 357.525 122.931 361.019 128.766ZM357.239 123.102 356.322 126.759 354.5 118.528 360.895 124.019Z" fill="#767171"/><path d="M364.684 126.362 361.836 121.331 362.416 121.003 365.264 126.034ZM362.126 121.167 361.12 124.8 359.5 116.527 365.759 122.173Z" fill="#767171"/><path d="M355.502 132.099 351.973 126.263 352.544 125.918 356.072 131.755ZM352.259 126.091 351.357 129.751 349.5 121.529 355.918 126.992Z" fill="#767171"/><path d="M328.463 142.39C337.326 118.875 365.037 107.551 390.356 117.099" stroke="#767171" stroke-width="1.99929" stroke-miterlimit="8" fill="none" fill-rule="evenodd"/><path d="M360.5 166.539 366 156.537 371.5 166.539Z" stroke="#ED210A" stroke-width="1.33258" stroke-miterlimit="8" fill="none" fill-rule="evenodd"/><path d="M336.662 154.182C334.961 142.817 353.872 130.567 378.899 126.821 403.926 123.074 425.593 129.25 427.294 140.614 428.994 151.979 410.084 164.229 385.057 167.975 360.029 171.722 338.362 165.546 336.662 154.182Z" stroke="#EA4335" stroke-width="1.33259" stroke-miterlimit="8" fill="none" fill-rule="evenodd"/><path d="M387.5 52.5124 393 41.5098 398.5 52.5124Z" stroke="#F26C00" stroke-width="1.33258" stroke-miterlimit="8" stroke-dasharray="1.33258 1.33258" fill="none" fill-rule="evenodd"/><path d="M369.5 99.5234 375 89.5211 380.5 99.5234Z" stroke="#F26C00" stroke-width="1.33258" stroke-miterlimit="8" fill="#F26C00" fill-rule="evenodd"/><path d="M413.5 40.5095 419.5 29.5069 425.5 40.5095Z" stroke="#F26C00" stroke-width="1.33258" stroke-miterlimit="8" stroke-dasharray="1.33258 1.33258" fill="none" fill-rule="evenodd"/><path d="M390.5 81.5192 396 70.5166 401.5 81.5192Z" stroke="#F26C00" stroke-width="1.33258" stroke-miterlimit="8" stroke-dasharray="1.33258 1.33258" fill="none" fill-rule="evenodd"/><text font-family="Times New Roman,Times New Roman_MSFontService,sans-serif" font-weight="700" font-size="19" transform="matrix(1 0 0 1.00024 490.325 34)">Base<tspan font-size="19" x="42.143" y="0">Space</tspan></text><path d="M490.5 62.5147 496 52.5124 501.5 62.5147Z" stroke="#34A0FF" stroke-width="1.33258" stroke-miterlimit="8" fill="#34A0FF" fill-rule="evenodd"/><path d="M495.5 100.524 501 89.5211 506.5 100.524Z" stroke="#34A0FF" stroke-width="1.33258" stroke-miterlimit="8" stroke-dasharray="1.33258 1.33258" fill="none" fill-rule="evenodd"/><path d="M518.5 126.53 524.5 116.527 530.5 126.53Z" stroke="#34A0FF" stroke-width="1.33258" stroke-miterlimit="8" stroke-dasharray="1.33258 1.33258" fill="none" fill-rule="evenodd"/><path d="M534.5 111.526 540 101.524 545.5 111.526Z" stroke="#34A0FF" stroke-width="1.33258" stroke-miterlimit="8" stroke-dasharray="1.33258 1.33258" fill="none" fill-rule="evenodd"/><path d="M377.5 140.533 383.5 129.53 389.5 140.533Z" stroke="#ED210A" stroke-width="1.33258" stroke-miterlimit="8" stroke-dasharray="1.33258 1.33258" fill="none" fill-rule="evenodd"/><path d="M379.5 166.539 385.5 155.537 391.5 166.539Z" stroke="#ED210A" stroke-width="1.33258" stroke-miterlimit="8" stroke-dasharray="1.33258 1.33258" fill="none" fill-rule="evenodd"/><path d="M346.5 150.535 352.5 140.533 358.5 150.535Z" stroke="#ED210A" stroke-width="1.33258" stroke-miterlimit="8" stroke-dasharray="1.33258 1.33258" fill="none" fill-rule="evenodd"/><path d="M420.5 149.535 426 138.533 431.5 149.535Z" stroke="#ED210A" stroke-width="1.33258" stroke-miterlimit="8" fill="#EE3723" fill-rule="evenodd"/><text font-family="Times New Roman,Times New Roman_MSFontService,sans-serif" font-weight="700" font-size="19" transform="matrix(1 0 0 1.00024 37.5104 411)">(c) Distribution Exploration</text><rect x="8.5" y="218.551" width="284" height="176.041" stroke="#D0CECE" stroke-width="2.66517" stroke-miterlimit="8" fill="#F5F5F5"/><g clip-path="url(#clip19)" filter="url(#fx3)" transform="translate(13 309)"><g clip-path="url(#clip20)"><path d="M62.0397 12.9458C97.5333 1.61078 130.649 6.02699 136.006 22.8096 141.363 39.5923 116.933 62.3861 81.4393 73.7211 45.9457 85.0561 12.8296 80.6399 7.47256 63.8572 2.1155 47.0746 26.546 24.2807 62.0397 12.9458Z" fill="#FAD3CF" fill-rule="evenodd"/></g></g><path d="M72.2128 319.118C107.706 307.783 140.823 312.199 146.18 328.982 151.537 345.765 127.106 368.559 91.6125 379.894 56.1188 391.229 23.0028 386.812 17.6457 370.03 12.2887 353.247 36.7192 330.453 72.2128 319.118Z" fill="#FAD3CF" fill-rule="evenodd"/><g clip-path="url(#clip21)" filter="url(#fx4)" transform="translate(37 215)"><g clip-path="url(#clip22)"><path d="M52.6418 17.5598C85.2594 2.06253 118.755 4.35337 127.457 22.6765 136.158 40.9996 116.771 68.4165 84.1531 83.9137 51.5356 99.411 18.0398 97.1201 9.3382 78.797 0.636597 60.4739 20.0243 33.057 52.6418 17.5598Z" fill="#FBE2CC" fill-rule="evenodd"/></g></g><path d="M86.815 229.732C119.433 214.235 152.928 216.526 161.63 234.849 170.331 253.172 150.944 280.589 118.326 296.086 85.7087 311.583 52.213 309.293 43.5114 290.97 34.8098 272.646 54.1975 245.23 86.815 229.732Z" fill="#FBE2CC" fill-rule="evenodd"/><g clip-path="url(#clip23)" filter="url(#fx5)" transform="translate(162 260)"><g clip-path="url(#clip24)"><path d="M41.441 85.1724C12.9891 65.5933-0.456693 35.7367 11.4089 18.4858 23.2745 1.23491 55.9583 3.12233 84.4101 22.7015 112.862 42.2806 126.308 72.1372 114.442 89.3881 102.577 106.639 69.8928 104.752 41.441 85.1724Z" fill="#CBECFF" fill-rule="evenodd"/></g></g><path d="M200.614 342.345C172.162 322.766 158.716 292.909 170.582 275.658 182.448 258.407 215.131 260.295 243.583 279.874 272.035 299.453 285.481 329.31 273.615 346.561 261.75 363.812 229.066 361.924 200.614 342.345Z" fill="#CBECFF" fill-rule="evenodd"/><path d="M290.269 358.232 131 302.071" stroke="#000000" stroke-width="1.99888" stroke-miterlimit="8" fill="none" fill-rule="evenodd"/><path d="M0 0 122.988 59.3498" stroke="#000000" stroke-width="1.99888" stroke-miterlimit="8" fill="none" fill-rule="evenodd" transform="matrix(-1 0 0 1.00024 130.988 302.071)"/><path d="M0 0 19.5635 83.4357" stroke="#000000" stroke-width="1.99888" stroke-miterlimit="8" fill="none" fill-rule="evenodd" transform="matrix(1 0 0 -1.00024 130 301.507)"/><text font-family="Times New Roman,Times New Roman_MSFontService,sans-serif" font-weight="700" font-size="19" transform="matrix(1 0 0 1.00024 192.545 242)">Base<tspan font-size="19" x="42.143" y="0">Space</tspan></text><path d="M22.5 354.583 28.5 344.581 34.5 354.583Z" stroke="#ED210A" stroke-width="1.33258" stroke-miterlimit="8" fill="none" fill-rule="evenodd"/><path d="M63.5 253.56 69.5 242.557 75.5 253.56Z" stroke="#F26C00" stroke-width="1.33258" stroke-miterlimit="8" fill="none" fill-rule="evenodd"/><path d="M230.5 299.57 236.5 288.568 242.5 299.57Z" stroke="#34A0FF" stroke-width="1.33258" stroke-miterlimit="8" fill="none" fill-rule="evenodd"/><path d="M171.5 278.566 177.5 268.563 183.5 278.566Z" stroke="#34A0FF" stroke-width="1.33258" stroke-miterlimit="8" fill="none" fill-rule="evenodd"/><path d="M236.5 352.583 242.5 341.58 248.5 352.583Z" stroke="#34A0FF" stroke-width="1.33258" stroke-miterlimit="8" fill="none" fill-rule="evenodd"/><path d="M104.5 325.577 110 315.574 115.5 325.577Z" stroke="#ED210A" stroke-width="1.33258" stroke-miterlimit="8" fill="none" fill-rule="evenodd"/><path d="M154.5 242.557 160 231.554 165.5 242.557Z" stroke="#F26C00" stroke-width="1.33258" stroke-miterlimit="8" fill="none" fill-rule="evenodd"/><path d="M143.5 255.56 149 244.558 154.5 255.56Z" stroke="#F26C00" stroke-width="1.33258" stroke-miterlimit="8" fill="none" fill-rule="evenodd"/><path d="M97 265.562C97 262.524 99.4624 260.061 102.5 260.061 105.538 260.061 108 262.524 108 265.562 108 268.601 105.538 271.064 102.5 271.064 99.4624 271.064 97 268.601 97 265.562Z" fill="#F26C00" fill-rule="evenodd"/><path d="M135.63 234.555C142.546 241.246 133.04 262.298 114.396 281.577 95.7535 300.855 75.0338 311.059 68.1179 304.368 61.202 297.677 70.7086 276.625 89.3517 257.346 107.995 238.068 128.714 227.864 135.63 234.555Z" stroke="#F26C00" stroke-width="1.33275" stroke-miterlimit="8" fill="none" fill-rule="evenodd"/><path d="M143.5 255.56 149 244.558 154.5 255.56Z" stroke="#F26C00" stroke-width="1.33258" stroke-miterlimit="8" fill="none" fill-rule="evenodd"/><path d="M218.505 306.005C219.73 303.401 223.044 302.382 225.905 303.73 228.766 305.077 230.091 308.281 228.866 310.885 227.64 313.489 224.327 314.507 221.465 313.16 218.604 311.812 217.279 308.609 218.505 306.005Z" fill="#34A0FF" fill-rule="evenodd"/><path d="M230.5 299.57 236.5 288.568 242.5 299.57Z" stroke="#34A0FF" stroke-width="1.33258" stroke-miterlimit="8" fill="none" fill-rule="evenodd"/><path d="M236.5 352.583 242.5 341.58 248.5 352.583Z" stroke="#34A0FF" stroke-width="1.33258" stroke-miterlimit="8" fill="none" fill-rule="evenodd"/><path d="M187.551 267.207C196.387 259.085 216.528 266.628 232.535 284.053 248.543 301.479 254.357 322.189 245.52 330.31 236.684 338.432 216.543 330.889 200.535 313.464 184.527 296.038 178.714 275.328 187.551 267.207Z" stroke="#4285F4" stroke-width="1.33275" stroke-miterlimit="8" fill="none" fill-rule="evenodd"/><path d="M75 355.584C75 352.545 77.4625 350.082 80.5 350.082 83.5375 350.082 86 352.545 86 355.584 86 358.622 83.5375 361.085 80.5 361.085 77.4625 361.085 75 358.622 75 355.584Z" fill="#EF3D29" fill-rule="evenodd"/><path d="M68.5 370.587 74 360.585 79.5 370.587Z" stroke="#ED210A" stroke-width="1.33258" stroke-miterlimit="8" fill="none" fill-rule="evenodd"/><path d="M44.8358 358.292C43.1294 346.887 62.0347 334.605 87.062 330.858 112.089 327.112 133.761 333.32 135.468 344.725 137.174 356.129 118.269 368.411 93.2416 372.158 68.2142 375.905 46.5422 369.696 44.8358 358.292Z" stroke="#EA4335" stroke-width="1.33259" stroke-miterlimit="8" fill="none" fill-rule="evenodd"/><path d="M94.5 258.561 100.5 247.558 106.5 258.561Z" stroke="#F26C00" stroke-width="1.33258" stroke-miterlimit="8" stroke-dasharray="1.33258 1.33258" fill="none" fill-rule="evenodd"/><path d="M76.5 305.572 82 295.57 87.5 305.572Z" stroke="#F26C00" stroke-width="1.33258" stroke-miterlimit="8" fill="#F26C00" fill-rule="evenodd"/><path d="M120.5 246.558 126.5 235.555 132.5 246.558Z" stroke="#F26C00" stroke-width="1.33258" stroke-miterlimit="8" stroke-dasharray="1.33258 1.33258" fill="none" fill-rule="evenodd"/><path d="M97.5 287.568 103 277.565 108.5 287.568Z" stroke="#F26C00" stroke-width="1.33258" stroke-miterlimit="8" stroke-dasharray="1.33258 1.33258" fill="none" fill-rule="evenodd"/><path d="M194.5 268.563 200 258.561 205.5 268.563Z" stroke="#34A0FF" stroke-width="1.33258" stroke-miterlimit="8" fill="#34A0FF" fill-rule="evenodd"/><path d="M199.5 306.572 205.5 295.57 211.5 306.572Z" stroke="#34A0FF" stroke-width="1.33258" stroke-miterlimit="8" stroke-dasharray="1.33258 1.33258" fill="none" fill-rule="evenodd"/><path d="M222.5 332.578 228.5 322.576 234.5 332.578Z" stroke="#34A0FF" stroke-width="1.33258" stroke-miterlimit="8" stroke-dasharray="1.33258 1.33258" fill="none" fill-rule="evenodd"/><path d="M238.5 318.575 244.5 307.572 250.5 318.575Z" stroke="#34A0FF" stroke-width="1.33258" stroke-miterlimit="8" stroke-dasharray="1.33258 1.33258" fill="none" fill-rule="evenodd"/><path d="M86.5 344.581 92 333.578 97.5 344.581Z" stroke="#ED210A" stroke-width="1.33258" stroke-miterlimit="8" stroke-dasharray="1.33258 1.33258" fill="none" fill-rule="evenodd"/><path d="M87.5 370.587 93.5 359.585 99.5 370.587Z" stroke="#ED210A" stroke-width="1.33258" stroke-miterlimit="8" stroke-dasharray="1.33258 1.33258" fill="none" fill-rule="evenodd"/><path d="M54.5 354.583 60.5 344.581 66.5 354.583Z" stroke="#ED210A" stroke-width="1.33258" stroke-miterlimit="8" stroke-dasharray="1.33258 1.33258" fill="none" fill-rule="evenodd"/><path d="M128.5 353.583 134 343.581 139.5 353.583Z" stroke="#ED210A" stroke-width="1.33258" stroke-miterlimit="8" fill="#EE3723" fill-rule="evenodd"/><rect x="301.5" y="219.552" width="284" height="175.041" stroke="#D0CECE" stroke-width="2.66517" stroke-miterlimit="8" fill="#F5F5F5"/><g clip-path="url(#clip25)" filter="url(#fx6)" transform="translate(333 215)"><g clip-path="url(#clip26)"><path d="M52.8703 17.3933C85.4878 1.89607 118.984 4.18691 127.685 22.5101 136.387 40.8332 116.999 68.25 84.3816 83.7473 51.764 99.2445 18.2682 96.9537 9.56665 78.6306 0.865051 60.3074 20.2527 32.8906 52.8703 17.3933Z" fill="#FBE2CC" fill-rule="evenodd"/></g></g><path d="M383.043 229.566C415.661 214.069 449.157 216.359 457.858 234.683 466.56 253.006 447.172 280.423 414.555 295.92 381.937 311.417 348.441 309.126 339.74 290.803 331.038 272.48 350.426 245.063 383.043 229.566Z" fill="#FBE2CC" fill-rule="evenodd"/><text font-family="Times New Roman,Times New Roman_MSFontService,sans-serif" font-weight="700" font-size="19" transform="matrix(1 0 0 1.00024 341.696 411)">(d) Classifier Exploration</text><g clip-path="url(#clip27)" filter="url(#fx7)" transform="translate(455 260)"><g clip-path="url(#clip28)"><path d="M41.6061 85.5881C13.1542 66.0089-0.291608 36.1523 11.574 18.9014 23.4396 1.65053 56.1234 3.53794 84.5752 23.1171 113.027 42.6962 126.473 72.5528 114.607 89.8037 102.742 107.055 70.0579 105.167 41.6061 85.5881Z" fill="#CBECFF" fill-rule="evenodd"/></g></g><path d="M493.779 342.761C465.327 323.181 451.882 293.325 463.747 276.074 475.613 258.823 508.297 260.71 536.748 280.29 565.2 299.869 578.646 329.725 566.78 346.976 554.915 364.227 522.231 362.34 493.779 342.761Z" fill="#CBECFF" fill-rule="evenodd"/><g clip-path="url(#clip29)" filter="url(#fx8)" transform="translate(303 310)"><g clip-path="url(#clip30)"><path d="M62.0002 13.3616C97.4938 2.02662 130.61 6.44282 135.967 23.2255 141.324 40.0081 116.893 62.802 81.3998 74.1369 45.9061 85.4719 12.7901 81.0557 7.43304 64.2731 2.07598 47.4904 26.5065 24.6966 62.0002 13.3616Z" fill="#FAD3CF" fill-rule="evenodd"/></g></g><path d="M362.173 320.534C397.667 309.199 430.783 313.615 436.14 330.398 441.497 347.181 417.067 369.974 381.573 381.309 346.079 392.644 312.963 388.228 307.606 371.446 302.249 354.663 326.68 331.869 362.173 320.534Z" fill="#FAD3CF" fill-rule="evenodd"/><path d="M366 357.084C366 354.322 368.686 352.083 372 352.083 375.314 352.083 378 354.322 378 357.084 378 359.846 375.314 362.085 372 362.085 368.686 362.085 366 359.846 366 357.084Z" fill="#EF3D29" fill-rule="evenodd"/><path d="M364.324 357.26C363.194 350.323 376.499 342.383 394.041 339.526 411.583 336.669 426.719 339.977 427.848 346.914 428.978 353.851 415.673 361.791 398.131 364.648 380.589 367.505 365.453 364.197 364.324 357.26Z" stroke="#EA4335" stroke-width="1.33259" stroke-miterlimit="8" fill="none" fill-rule="evenodd"/><path d="M492.397 263.567C499.019 259.444 511.606 267.703 520.51 282.014 529.415 296.325 531.265 311.268 524.643 315.39 518.02 319.513 505.433 311.254 496.529 296.943 487.624 282.633 485.774 267.69 492.397 263.567Z" stroke="#4285F4" stroke-width="1.33281" stroke-miterlimit="8" fill="none" fill-rule="evenodd"/><path d="M399.571 256.405C404.862 260.374 401.677 273.56 392.457 285.856 383.237 298.153 371.473 304.903 366.182 300.934 360.891 296.965 364.076 283.779 373.296 271.483 382.516 259.186 394.279 252.436 399.571 256.405Z" stroke="#F26C00" stroke-width="1.33278" stroke-miterlimit="8" fill="none" fill-rule="evenodd"/><path d="M0.245124-0.225612 5.95083 5.97354 5.46058 6.42477-0.245124 0.225612ZM5.70571 6.19916 6.8423 1.53083 9.3155 10.1211 0.959329 6.94551Z" fill="#767171" transform="matrix(-1 0 0 1.00024 490.816 295.57)"/><path d="M422.878 245.647C429.23 270.054 413.151 295.366 386.964 302.185" stroke="#767171" stroke-width="1.99932" stroke-miterlimit="8" fill="none" fill-rule="evenodd"/><path d="M514.845 326.188C487.532 321.516 468.754 298.05 472.905 273.774" stroke="#767171" stroke-width="1.99889" stroke-miterlimit="8" fill="none" fill-rule="evenodd"/><path d="M314.5 355.584 320 345.581 325.5 355.584Z" stroke="#ED210A" stroke-width="1.33258" stroke-miterlimit="8" fill="none" fill-rule="evenodd"/><path d="M359.5 372.588 365.5 361.585 371.5 372.588Z" stroke="#ED210A" stroke-width="1.33258" stroke-miterlimit="8" fill="none" fill-rule="evenodd"/><path d="M526.5 299.57 532.5 289.568 538.5 299.57Z" stroke="#34A0FF" stroke-width="1.33258" stroke-miterlimit="8" fill="none" fill-rule="evenodd"/><path d="M532.5 352.583 538.5 342.581 544.5 352.583Z" stroke="#34A0FF" stroke-width="1.33258" stroke-miterlimit="8" fill="none" fill-rule="evenodd"/><path d="M396.5 326.577 402 316.574 407.5 326.577Z" stroke="#ED210A" stroke-width="1.33258" stroke-miterlimit="8" fill="none" fill-rule="evenodd"/><path d="M446.5 243.557 452.5 232.555 458.5 243.557Z" stroke="#F26C00" stroke-width="1.33258" stroke-miterlimit="8" fill="none" fill-rule="evenodd"/><path d="M436.5 256.56 442 245.558 447.5 256.56Z" stroke="#F26C00" stroke-width="1.33258" stroke-miterlimit="8" fill="none" fill-rule="evenodd"/><path d="M402.741 275.335 408.452 281.311 407.97 281.771 402.259 275.795ZM408.211 281.541 409.259 276.851 411.894 285.395 403.479 282.377Z" fill="#767171"/><path d="M407.741 270.333 413.451 276.309 412.97 276.77 407.259 270.794ZM413.211 276.54 414.259 271.85 416.894 280.394 408.479 277.375Z" fill="#767171"/><path d="M0.248149-0.22228 5.79501 5.97013 5.29871 6.41469-0.248149 0.22228ZM5.54686 6.19241 6.74641 1.53986 9.10333 10.1628 0.790828 6.87457Z" fill="#767171" transform="matrix(-1 0 0 1.00024 496.603 300.571)"/><path d="M387.689 340.744 384.987 336.305 385.557 335.959 388.259 340.397ZM385.272 336.132 384.382 339.795 382.5 331.578 388.934 337.022Z" fill="#767171"/><path d="M392.69 337.743 389.987 333.304 390.557 332.958 393.259 337.397ZM390.272 333.131 389.382 336.794 387.5 328.577 393.934 334.022Z" fill="#767171"/><path d="M382.69 343.745 379.988 339.306 380.557 338.959 383.259 343.398ZM380.272 339.133 379.382 342.796 377.5 334.579 383.935 340.023Z" fill="#767171"/><path d="M396.741 279.336 402.451 285.311 401.97 285.772 396.259 279.796ZM402.211 285.542 403.259 280.852 405.894 289.396 397.479 286.378Z" fill="#767171"/><path d="M0.248149-0.22228 5.79501 5.97013 5.29871 6.41469-0.248149 0.22228ZM5.54686 6.19241 6.74641 1.53986 9.10333 10.1628 0.790828 6.87457Z" fill="#767171" transform="matrix(-1 0 0 1.00024 501.603 304.572)"/><path d="M0 0 122.854 73.8789" stroke="#000000" stroke-width="1.99888" stroke-miterlimit="8" fill="none" fill-rule="evenodd" transform="matrix(1 0 0 -1.00024 301 375.967)"/><path d="M0 0 5.4616 82.7382" stroke="#000000" stroke-width="1.99888" stroke-miterlimit="8" fill="none" fill-rule="evenodd" transform="matrix(1 0 0 -1.00024 424 301.809)"/><path d="M424 302.071 584.465 348.842" stroke="#000000" stroke-width="1.99888" stroke-miterlimit="8" fill="none" fill-rule="evenodd"/><path d="M388 264.062C388 261.3 390.686 259.061 394 259.061 397.314 259.061 400 261.3 400 264.062 400 266.824 397.314 269.063 394 269.063 390.686 269.063 388 266.824 388 264.062Z" fill="#F26C00" fill-rule="evenodd"/><path d="M467.5 279.566 473 268.563 478.5 279.566Z" stroke="#34A0FF" stroke-width="1.33258" stroke-miterlimit="8" fill="none" fill-rule="evenodd"/><path d="M514.283 306.35C515.508 303.746 518.822 302.728 521.683 304.075 524.544 305.423 525.869 308.626 524.643 311.23 523.418 313.834 520.104 314.853 517.243 313.505 514.382 312.158 513.057 308.954 514.283 306.35Z" fill="#34A0FF" fill-rule="evenodd"/><path d="M526.5 299.57 532 289.568 537.5 299.57Z" stroke="#34A0FF" stroke-width="1.33258" stroke-miterlimit="8" fill="none" fill-rule="evenodd"/><path d="M356.342 357.502C364.552 333.657 391.948 321.471 417.532 330.284" stroke="#767171" stroke-width="1.9993" stroke-miterlimit="8" fill="none" fill-rule="evenodd"/><path d="M490.5 269.563 496.5 259.561 502.5 269.563Z" stroke="#34A0FF" stroke-width="1.33258" stroke-miterlimit="8" fill="#34A0FF" fill-rule="evenodd"/><path d="M369.5 305.572 375.5 294.569 381.5 305.572Z" stroke="#F26C00" stroke-width="1.33258" stroke-miterlimit="8" fill="#F26C00" fill-rule="evenodd"/><path d="M420.5 352.583 426 342.581 431.5 352.583Z" stroke="#ED210A" stroke-width="1.33258" stroke-miterlimit="8" fill="#EE3723" fill-rule="evenodd"/><text font-family="Times New Roman,Times New Roman_MSFontService,sans-serif" font-weight="700" font-size="19" transform="matrix(1 0 0 1.00024 486.922 241)">Base<tspan font-size="19" x="42.143" y="0">Space</tspan></text><path d="M354.5 255.56 360 244.558 365.5 255.56Z" stroke="#F26C00" stroke-width="1.33258" stroke-miterlimit="8" fill="none" fill-rule="evenodd"/><text font-family="Times New Roman,Times New Roman_MSFontService,sans-serif" font-weight="700" font-size="19" transform="matrix(1 0 0 1.00024 56.6405 204)">(a) Traditional Method</text><rect x="7.50004" y="11.5027" width="284" height="176.041" stroke="#D0CECE" stroke-width="2.66517" stroke-miterlimit="8" fill="#F5F5F5"/><g clip-path="url(#clip31)" filter="url(#fx9)" transform="translate(35 9)"><g clip-path="url(#clip32)"><path d="M52.0188 17.4545C84.6363 1.9572 118.132 4.24804 126.834 22.5712 135.535 40.8943 116.148 68.3112 83.5301 83.8084 50.9125 99.3057 17.4167 97.0148 8.71515 78.6917 0.0135498 60.3685 19.4012 32.9517 52.0188 17.4545Z" fill="#FBE2CC" fill-rule="evenodd"/></g></g><path d="M87.0188 22.4558C119.636 6.95851 153.132 9.24935 161.834 27.5725 170.535 45.8956 151.148 73.3125 118.53 88.8097 85.9125 104.307 52.4167 102.016 43.7151 83.693 35.0135 65.3699 54.4012 37.953 87.0188 22.4558Z" fill="#FBE2CC" fill-rule="evenodd"/><g clip-path="url(#clip33)" filter="url(#fx10)" transform="translate(158 54)"><g clip-path="url(#clip34)"><path d="M41.53 85.0671C13.0782 65.488-0.367642 35.6314 11.498 18.3805 23.3636 1.12959 56.0473 3.01701 84.4992 22.5961 112.951 42.1753 126.397 72.0319 114.531 89.2828 102.666 106.534 69.9819 104.646 41.53 85.0671Z" fill="#CBECFF" fill-rule="evenodd"/></g></g><path d="M199.53 135.068C171.078 115.489 157.632 85.6327 169.498 68.3818 181.364 51.1309 214.047 53.0183 242.499 72.5975 270.951 92.1766 284.397 122.033 272.531 139.284 260.666 156.535 227.982 154.648 199.53 135.068Z" fill="#CBECFF" fill-rule="evenodd"/><g clip-path="url(#clip35)" filter="url(#fx11)" transform="translate(6 103)"><g clip-path="url(#clip36)"><path d="M61.9241 13.2403C97.4178 1.90534 130.534 6.32154 135.891 23.1042 141.248 39.8868 116.817 62.6807 81.3237 74.0157 45.8301 85.3506 12.7141 80.9344 7.35699 64.1518 1.99993 47.3691 26.4305 24.5753 61.9241 13.2403Z" fill="#FAD3CF" fill-rule="evenodd"/></g></g><path d="M67.9241 112.242C103.418 100.907 136.534 105.323 141.891 122.105 147.248 138.888 122.817 161.682 87.3237 173.017 51.8301 184.352 18.7141 179.936 13.357 163.153 7.99993 146.37 32.4305 123.577 67.9241 112.242Z" fill="#FAD3CF" fill-rule="evenodd"/><path d="M20.5 148.535 26 137.532 31.5 148.535Z" stroke="#ED210A" stroke-width="1.33258" stroke-miterlimit="8" fill="none" fill-rule="evenodd"/><path d="M73.5 165.539 79 155.537 84.5 165.539Z" stroke="#ED210A" stroke-width="1.33258" stroke-miterlimit="8" fill="none" fill-rule="evenodd"/><path d="M232.5 92.5218 238 81.5192 243.5 92.5218Z" stroke="#34A0FF" stroke-width="1.33258" stroke-miterlimit="8" fill="none" fill-rule="evenodd"/><path d="M173.5 72.5171 179 61.5145 184.5 72.5171Z" stroke="#34A0FF" stroke-width="1.33258" stroke-miterlimit="8" fill="none" fill-rule="evenodd"/><path d="M238.5 145.534 244 134.532 249.5 145.534Z" stroke="#34A0FF" stroke-width="1.33258" stroke-miterlimit="8" fill="none" fill-rule="evenodd"/><path d="M101.5 119.528 107.5 108.525 113.5 119.528Z" stroke="#ED210A" stroke-width="1.33258" stroke-miterlimit="8" fill="none" fill-rule="evenodd"/><path d="M152.5 35.5084 158 25.506 163.5 35.5084Z" stroke="#F26C00" stroke-width="1.33258" stroke-miterlimit="8" fill="none" fill-rule="evenodd"/><path d="M141.5 48.5114 147.5 38.5091 153.5 48.5114Z" stroke="#F26C00" stroke-width="1.33258" stroke-miterlimit="8" fill="none" fill-rule="evenodd"/><path d="M0 0 69.7226 91.1135" stroke="#000000" stroke-width="1.99888" stroke-miterlimit="8" fill="none" fill-rule="evenodd" transform="matrix(1 0 0 -1.00024 60 186.157)"/><path d="M0 0 160.465 7.84661" stroke="#000000" stroke-width="1.99888" stroke-miterlimit="8" fill="none" fill-rule="evenodd" transform="matrix(1 0 0 -1.00024 129 93.8686)"/><text font-family="Times New Roman,Times New Roman_MSFontService,sans-serif" font-weight="700" font-size="19" transform="matrix(1 0 0 1.00024 190.537 33)">Base<tspan font-size="19" x="42.143" y="0">Space</tspan></text><path d="M90.263 63.5286C99.5547 69.9676 101.886 82.6961 95.4704 91.9585 89.0547 101.221 76.3214 103.51 67.0297 97.0708 57.738 90.6318 55.4066 77.9033 61.8222 68.6409 68.2379 59.3784 80.9713 57.0896 90.263 63.5286Z" stroke="#F26C00" stroke-width="1.3328" stroke-miterlimit="8" fill="none" fill-rule="evenodd"/><path d="M76.5 97.523 82 87.5206 87.5 97.523Z" stroke="#F26C00" stroke-width="1.33258" stroke-miterlimit="8" fill="#F26C00" fill-rule="evenodd"/><path d="M192.5 61.5145 198.5 50.5119 204.5 61.5145Z" stroke="#34A0FF" stroke-width="1.33258" stroke-miterlimit="8" fill="#34A0FF" fill-rule="evenodd"/><path d="M128.5 145.534 134 135.532 139.5 145.534Z" stroke="#ED210A" stroke-width="1.33258" stroke-miterlimit="8" fill="#EE3723" fill-rule="evenodd"/><path d="M87.5 79.5187 93.5 69.5164 99.5 79.5187Z" stroke="#F26C00" stroke-width="1.33258" stroke-miterlimit="8" stroke-dasharray="1.33258 1.33258" fill="none" fill-rule="evenodd"/><path d="M63.5 91.5215 69 81.5192 74.5 91.5215Z" stroke="#F26C00" stroke-width="1.33258" stroke-miterlimit="8" stroke-dasharray="1.33258 1.33258" fill="none" fill-rule="evenodd"/><path d="M67.5 73.5173 73 63.5149 78.5 73.5173Z" stroke="#F26C00" stroke-width="1.33258" stroke-miterlimit="8" stroke-dasharray="1.33258 1.33258" fill="none" fill-rule="evenodd"/><path d="M200 89.5211C188.678 89.5211 179.5 81.2365 179.5 71.0168 179.5 60.7971 188.678 52.5124 200 52.5124 211.322 52.5124 220.5 60.7971 220.5 71.0168 220.5 81.2365 211.322 89.5211 200 89.5211Z" stroke="#4285F4" stroke-width="1.3329" stroke-miterlimit="8" fill="none" fill-rule="evenodd"/><path d="M205.5 68.5161 211.5 58.5138 217.5 68.5161Z" stroke="#34A0FF" stroke-width="1.33258" stroke-miterlimit="8" stroke-dasharray="1.33258 1.33258" fill="none" fill-rule="evenodd"/><path d="M182.5 79.5187 188.5 69.5164 194.5 79.5187Z" stroke="#34A0FF" stroke-width="1.33258" stroke-miterlimit="8" stroke-dasharray="1.33258 1.33258" fill="none" fill-rule="evenodd"/><path d="M198.5 84.5199 204 74.5175 209.5 84.5199Z" stroke="#34A0FF" stroke-width="1.33258" stroke-miterlimit="8" stroke-dasharray="1.33258 1.33258" fill="none" fill-rule="evenodd"/><path d="M133.5 128.53 139 117.528 144.5 128.53Z" stroke="#ED210A" stroke-width="1.33258" stroke-miterlimit="8" stroke-dasharray="1.33258 1.33258" fill="none" fill-rule="evenodd"/><path d="M110.6 125.969C117.305 115.211 129.264 110.559 137.31 115.576 145.357 120.594 146.443 133.383 139.738 144.141 133.032 154.898 121.073 159.551 113.027 154.533 104.981 149.515 103.894 136.727 110.6 125.969Z" stroke="#EA4335" stroke-width="1.33267" stroke-miterlimit="8" fill="none" fill-rule="evenodd"/><path d="M117.5 130.531 123 119.528 128.5 130.531Z" stroke="#ED210A" stroke-width="1.33258" stroke-miterlimit="8" stroke-dasharray="1.33258 1.33258" fill="none" fill-rule="evenodd"/><path d="M107.5 146.534 113.5 136.532 119.5 146.534Z" stroke="#ED210A" stroke-width="1.33258" stroke-miterlimit="8" stroke-dasharray="1.33258 1.33258" fill="none" fill-rule="evenodd"/><path d="M60.5 44.5105 66.5 34.5081 72.5 44.5105Z" stroke="#F26C00" stroke-width="1.33258" stroke-miterlimit="8" fill="none" fill-rule="evenodd"/><path d="M129.638 94.9944 31 11.0026" stroke="#000000" stroke-width="1.99888" stroke-miterlimit="8" fill="none" fill-rule="evenodd"/><path d="M129.246 94.9659 7.50005 66.5157" stroke="#7F7F7F" stroke-width="1.33258" stroke-miterlimit="8" stroke-dasharray="5.33034 3.99775" fill="none" fill-rule="evenodd"/><path d="M0 0 161.19 61.5449" stroke="#7F7F7F" stroke-width="1.33258" stroke-miterlimit="8" stroke-dasharray="5.33034 3.99775" fill="none" fill-rule="evenodd" transform="matrix(1 0 0 -1.00024 129.5 94.0671)"/><path d="M0 0 7.61913 91.968" stroke="#7F7F7F" stroke-width="1.33258" stroke-miterlimit="8" stroke-dasharray="5.33034 3.99775" fill="none" fill-rule="evenodd" transform="matrix(1 0 0 -1.00024 122.5 186.512)"/><path d="M224.417 57.8488 227.239 60.8925 228.807 63.5685 226.794 64.7476 225.291 62.1816 225.443 62.3852 222.707 59.4351ZM229.831 65.9014 230.688 68.3569 231.217 72.4891 231.182 73.1724 228.853 73.0521 228.883 72.4734 228.891 72.6819 228.39 68.7743 228.446 69.0102 227.63 66.6697ZM231.062 75.5019 231.002 76.6678 229.944 80.8061 229.12 82.6242 226.996 81.6615 227.777 79.9367 227.71 80.129 228.714 76.2025 228.679 76.4313 228.733 75.3816ZM227.538 83.2899 232.343 83.2944 224.578 87.7233 225.695 78.852Z" fill="#7F7F7F"/><path d="M54.0989 77.2959 53.815 71.9804 54.0746 70.1006 56.3847 70.4198 56.1403 72.1891 56.1496 71.9673 56.4276 77.1714ZM54.3938 67.7899 54.5407 66.7262 56.1814 61.8644 56.7633 60.797 58.8107 61.9136 58.2774 62.8919 58.3585 62.7066 56.7854 67.3678 56.8357 67.1544 56.7038 68.1092ZM57.8796 58.749 58.6162 57.3978 61.8871 53.5904 62.5964 53.0261 64.048 54.8517 63.4252 55.3472 63.5837 55.1945 60.4652 58.8245 60.6046 58.6226 59.9271 59.8656ZM64.4216 51.5742 65.7881 50.4872 69.8379 48.4026 70.905 50.4767 66.9574 52.5086 67.1496 52.3844 65.8731 53.3998ZM70.3715 49.4396 66.7365 46.2969 75.5087 48.0174 68.8693 54.0045Z" fill="#7F7F7F"/><path d="M121.108 169.689 116.012 170.47 113.925 170.341 114.069 168.013 116.031 168.134 115.783 168.145 120.755 167.384ZM111.597 170.197 110.902 170.153 105.935 168.849 104.472 168.112 105.522 166.029 106.875 166.711 106.646 166.624 111.384 167.868 111.16 167.832 111.742 167.868ZM102.39 167.061 101.38 166.552 97.2885 163.404 96.5278 162.568 98.2521 160.998 98.9433 161.757 98.7922 161.618 102.715 164.636 102.529 164.519 103.44 164.979ZM94.9577 160.844 93.7367 159.502 90.9298 154.86 90.8901 154.754 93.0746 153.937 93.0761 153.941 92.9816 153.746 95.6732 158.198 95.5376 158.016 96.6819 159.273ZM91.9823 154.345 89.1712 158.243 90.1156 149.352 96.6603 155.442Z" fill="#7F7F7F"/><path d="M215.5 446.605 221 435.602 226.5 446.605Z" stroke="#A6A6A6" stroke-width="1.33258" stroke-miterlimit="8" stroke-dasharray="1.33258 1.33258" fill="none" fill-rule="evenodd"/><path d="M28.5 445.605 34 434.602 39.5 445.605Z" stroke="#A6A6A6" stroke-width="1.33258" stroke-miterlimit="8" fill="#A6A6A6" fill-rule="evenodd"/></g></svg>